<svg xmlns="http://www.w3.org/2000/svg" viewBox="0 0 32 32" fill="none">
  <rect width="32" height="32" rx="8" fill="#0B1220"/>
  <path
    d="M16 6c-3.5 0-6 1.6-6 4v1.2c0 1.1.9 2 2 2h1.5c.8 0 1.5-.7 1.5-1.5S15.3 10 14.5 10H11.5c-.3 0-.5-.2-.5-.5 0-1.2 1.8-2.5 5-2.5s5 1.3 5 2.5c0 .3-.2.5-.5.5h-3c-.8 0-1.5.7-1.5 1.5S16.7 14 17.5 14H22c1.1 0 2-.9 2-2V10c0-2.4-2.5-4-6-4Z"
    fill="#7DD3FC"
  />
  <path
    d="M10 18.5c0-.8.7-1.5 1.5-1.5H22c1.1 0 2 .9 2 2V22c0 2.4-2.5 4-6 4s-6-1.6-6-4v-1.2c0-.8.7-1.5 1.5-1.5h3c.8 0 1.5-.7 1.5-1.5S15.3 16 14.5 16h-1c-1.1 0-2 .9-2 2v.5Z"
    fill="#38BDF8"
  />
</svg>
