<svg xmlns="http://www.w3.org/2000/svg" viewBox="0 0 64 64" fill="none" aria-hidden="true">
  <defs>
    <radialGradient id="marbleBase" cx="0" cy="0" r="1" gradientUnits="userSpaceOnUse" gradientTransform="translate(22 18) rotate(40) scale(40)">
      <stop offset="0" stop-color="#eef6ff" />
      <stop offset="0.32" stop-color="#c8defa" />
      <stop offset="0.72" stop-color="#89b7f0" />
      <stop offset="1" stop-color="#4f7fcb" />
    </radialGradient>
    <radialGradient id="specular" cx="0" cy="0" r="1" gradientUnits="userSpaceOnUse" gradientTransform="translate(23 20) rotate(30) scale(15)">
      <stop offset="0" stop-color="#ffffff" stop-opacity="0.96" />
      <stop offset="1" stop-color="#ffffff" stop-opacity="0" />
    </radialGradient>
    <linearGradient id="veinA" x1="16" y1="18" x2="49" y2="44" gradientUnits="userSpaceOnUse">
      <stop stop-color="#ffffff" stop-opacity="0.66" />
      <stop offset="1" stop-color="#ffffff" stop-opacity="0.08" />
    </linearGradient>
    <linearGradient id="veinB" x1="18" y1="46" x2="48" y2="20" gradientUnits="userSpaceOnUse">
      <stop stop-color="#1d4ed8" stop-opacity="0.34" />
      <stop offset="1" stop-color="#3b82f6" stop-opacity="0.05" />
    </linearGradient>
    <clipPath id="ballClip">
      <circle cx="32" cy="32" r="24" />
    </clipPath>
  </defs>

  <rect x="4" y="4" width="56" height="56" rx="16" fill="#f7f9fc" />
  <rect x="4" y="4" width="56" height="56" rx="16" stroke="#d7e0ee" />

  <g clip-path="url(#ballClip)">
    <circle cx="32" cy="32" r="24" fill="url(#marbleBase)" />
    <path d="M10 31C19 24 27 39 36 33C44 28 50 37 56 35" stroke="url(#veinA)" stroke-width="2.2" stroke-linecap="round" />
    <path d="M14 23C22 19 27 29 34 26C40 23 45 27 51 24" stroke="url(#veinA)" stroke-width="1.8" stroke-linecap="round" />
    <path d="M13 42C20 38 26 46 33 42C39 38 44 43 51 40" stroke="url(#veinB)" stroke-width="2.4" stroke-linecap="round" />
    <circle cx="32" cy="32" r="24" fill="url(#specular)" />
  </g>

  <circle cx="32" cy="32" r="24" stroke="#ffffff" stroke-opacity="0.62" />
</svg>
